<svg xmlns="http://www.w3.org/2000/svg" xmlns:xlink="http://www.w3.org/1999/xlink" width="50" zoomAndPan="magnify" viewBox="0 0 37.5 37.499999" height="50" preserveAspectRatio="xMidYMid meet" version="1.0"><defs><clipPath id="9cb6954d96"><path d="M 0 0 L 37.007812 0 L 37.007812 37.007812 L 0 37.007812 Z M 0 0 " clip-rule="nonzero"/></clipPath></defs><g clip-path="url(#9cb6954d96)"><path fill="#0cc0df" d="M 37.003906 18.503906 C 37.003906 19.109375 36.976562 19.710938 36.914062 20.316406 C 36.855469 20.917969 36.765625 21.519531 36.648438 22.113281 C 36.53125 22.707031 36.382812 23.292969 36.207031 23.875 C 36.03125 24.453125 35.828125 25.023438 35.597656 25.582031 C 35.363281 26.144531 35.105469 26.691406 34.820312 27.222656 C 34.535156 27.757812 34.222656 28.277344 33.886719 28.78125 C 33.550781 29.285156 33.1875 29.773438 32.804688 30.238281 C 32.421875 30.707031 32.015625 31.15625 31.585938 31.585938 C 31.15625 32.015625 30.707031 32.421875 30.238281 32.804688 C 29.773438 33.1875 29.285156 33.550781 28.78125 33.886719 C 28.277344 34.222656 27.757812 34.535156 27.222656 34.820312 C 26.691406 35.105469 26.144531 35.363281 25.582031 35.597656 C 25.023438 35.828125 24.453125 36.03125 23.875 36.207031 C 23.292969 36.382812 22.707031 36.53125 22.113281 36.648438 C 21.519531 36.765625 20.917969 36.855469 20.316406 36.914062 C 19.710938 36.976562 19.109375 37.003906 18.503906 37.003906 C 17.894531 37.003906 17.292969 36.976562 16.6875 36.914062 C 16.085938 36.855469 15.488281 36.765625 14.894531 36.648438 C 14.296875 36.53125 13.710938 36.382812 13.132812 36.207031 C 12.550781 36.03125 11.980469 35.828125 11.421875 35.597656 C 10.863281 35.363281 10.316406 35.105469 9.78125 34.820312 C 9.246094 34.535156 8.726562 34.222656 8.222656 33.886719 C 7.71875 33.550781 7.234375 33.1875 6.765625 32.804688 C 6.296875 32.421875 5.847656 32.015625 5.417969 31.585938 C 4.992188 31.15625 4.585938 30.707031 4.199219 30.238281 C 3.816406 29.773438 3.453125 29.285156 3.117188 28.78125 C 2.78125 28.277344 2.46875 27.757812 2.183594 27.222656 C 1.898438 26.691406 1.640625 26.144531 1.410156 25.582031 C 1.175781 25.023438 0.972656 24.453125 0.796875 23.875 C 0.621094 23.292969 0.472656 22.707031 0.355469 22.113281 C 0.238281 21.519531 0.148438 20.917969 0.0898438 20.316406 C 0.03125 19.710938 0 19.109375 0 18.503906 C 0 17.894531 0.03125 17.292969 0.0898438 16.6875 C 0.148438 16.085938 0.238281 15.488281 0.355469 14.894531 C 0.472656 14.296875 0.621094 13.710938 0.796875 13.132812 C 0.972656 12.550781 1.175781 11.980469 1.410156 11.421875 C 1.640625 10.863281 1.898438 10.316406 2.183594 9.78125 C 2.46875 9.246094 2.78125 8.726562 3.117188 8.222656 C 3.453125 7.71875 3.816406 7.234375 4.199219 6.765625 C 4.585938 6.296875 4.992188 5.847656 5.417969 5.417969 C 5.847656 4.992188 6.296875 4.585938 6.765625 4.199219 C 7.234375 3.816406 7.71875 3.453125 8.222656 3.117188 C 8.726562 2.78125 9.246094 2.46875 9.78125 2.183594 C 10.316406 1.898438 10.863281 1.640625 11.421875 1.410156 C 11.980469 1.175781 12.550781 0.972656 13.132812 0.796875 C 13.710938 0.621094 14.296875 0.472656 14.894531 0.355469 C 15.488281 0.238281 16.085938 0.148438 16.6875 0.0898438 C 17.292969 0.03125 17.894531 0 18.503906 0 C 19.109375 0 19.710938 0.03125 20.316406 0.0898438 C 20.917969 0.148438 21.519531 0.238281 22.113281 0.355469 C 22.707031 0.472656 23.292969 0.621094 23.875 0.796875 C 24.453125 0.972656 25.023438 1.175781 25.582031 1.410156 C 26.144531 1.640625 26.691406 1.898438 27.222656 2.183594 C 27.757812 2.46875 28.277344 2.78125 28.78125 3.117188 C 29.285156 3.453125 29.773438 3.816406 30.238281 4.199219 C 30.707031 4.585938 31.15625 4.992188 31.585938 5.417969 C 32.015625 5.847656 32.421875 6.296875 32.804688 6.765625 C 33.1875 7.234375 33.550781 7.71875 33.886719 8.222656 C 34.222656 8.726562 34.535156 9.246094 34.820312 9.78125 C 35.105469 10.316406 35.363281 10.863281 35.597656 11.421875 C 35.828125 11.980469 36.03125 12.550781 36.207031 13.132812 C 36.382812 13.710938 36.53125 14.296875 36.648438 14.894531 C 36.765625 15.488281 36.855469 16.085938 36.914062 16.6875 C 36.976562 17.292969 37.003906 17.894531 37.003906 18.503906 Z M 37.003906 18.503906 " fill-opacity="1" fill-rule="nonzero"/></g><path fill="#f2f3f4" d="M 7.019531 12.085938 L 29.984375 12.085938 L 29.984375 24.523438 C 29.984375 24.523438 29.984375 26.375 28.851562 26.375 C 27.796875 26.378906 9.582031 26.375 8.394531 26.375 C 6.75 26.375 6.945312 24.949219 6.945312 24.949219 Z M 7.019531 12.085938 " fill-opacity="1" fill-rule="nonzero"/><path fill="#e8e8e9" d="M 18.460938 19.589844 C 18.460938 19.589844 29.984375 24.988281 29.84375 25.449219 C 29.699219 25.914062 29.417969 26.375 28.851562 26.375 C 27.796875 26.378906 9.582031 26.375 8.394531 26.375 C 7.636719 26.375 7.269531 26.070312 7.09375 25.742188 C 6.886719 25.363281 18.460938 19.589844 18.460938 19.589844 Z M 18.460938 19.589844 " fill-opacity="1" fill-rule="nonzero"/><path fill="#ffffff" d="M 7.019531 12.085938 L 29.984375 12.085938 C 29.984375 12.085938 20.351562 22.46875 18.460938 22.261719 C 16.570312 22.058594 7.019531 12.085938 7.019531 12.085938 Z M 7.019531 12.085938 " fill-opacity="1" fill-rule="nonzero"/><path fill="#ffffff" d="M 7.019531 12.085938 L 7.714844 12.085938 C 7.714844 12.085938 17.132812 21.875 18.503906 21.761719 C 19.957031 21.589844 29.222656 12.085938 29.222656 12.085938 L 29.984375 12.085938 C 29.984375 12.085938 20.351562 22.46875 18.460938 22.261719 C 16.570312 22.058594 7.019531 12.085938 7.019531 12.085938 Z M 7.019531 12.085938 " fill-opacity="1" fill-rule="nonzero"/></svg>