<svg xmlns="http://www.w3.org/2000/svg" xmlns:xlink="http://www.w3.org/1999/xlink" width="200" zoomAndPan="magnify" viewBox="0 0 150 44.999999" height="60" preserveAspectRatio="xMidYMid meet" version="1.0"><defs><g/></defs><g fill="#17265c" fill-opacity="1"><g transform="translate(3.093471, 30.772906)"><g><path d="M 4.53125 0.21875 C 3.65625 0.21875 2.925781 0.101562 2.34375 -0.125 C 1.757812 -0.351562 1.320312 -0.597656 1.03125 -0.859375 C 0.75 -1.128906 0.609375 -1.289062 0.609375 -1.34375 L 1.375 -2.5 C 1.375 -2.46875 1.5 -2.34375 1.75 -2.125 C 2.007812 -1.914062 2.359375 -1.71875 2.796875 -1.53125 C 3.242188 -1.34375 3.757812 -1.25 4.34375 -1.25 C 4.96875 -1.25 5.453125 -1.414062 5.796875 -1.75 C 6.140625 -2.082031 6.3125 -2.519531 6.3125 -3.0625 C 6.3125 -3.40625 6.21875 -3.703125 6.03125 -3.953125 C 5.84375 -4.210938 5.613281 -4.429688 5.34375 -4.609375 C 5.070312 -4.785156 4.691406 -5.015625 4.203125 -5.296875 C 3.566406 -5.628906 3.046875 -5.945312 2.640625 -6.25 C 2.234375 -6.550781 1.882812 -6.945312 1.59375 -7.4375 C 1.300781 -7.925781 1.15625 -8.53125 1.15625 -9.25 C 1.15625 -10.03125 1.332031 -10.710938 1.6875 -11.296875 C 2.039062 -11.878906 2.535156 -12.320312 3.171875 -12.625 C 3.804688 -12.9375 4.53125 -13.09375 5.34375 -13.09375 C 5.863281 -13.09375 6.359375 -13.023438 6.828125 -12.890625 C 7.304688 -12.765625 7.707031 -12.617188 8.03125 -12.453125 C 8.351562 -12.285156 8.515625 -12.195312 8.515625 -12.1875 L 8.203125 -10.828125 C 8.128906 -10.867188 7.960938 -10.957031 7.703125 -11.09375 C 7.453125 -11.238281 7.125 -11.375 6.71875 -11.5 C 6.320312 -11.632812 5.921875 -11.703125 5.515625 -11.703125 C 5.015625 -11.703125 4.609375 -11.5625 4.296875 -11.28125 C 3.992188 -11 3.84375 -10.601562 3.84375 -10.09375 C 3.84375 -9.539062 4.019531 -9.097656 4.375 -8.765625 C 4.738281 -8.441406 5.289062 -8.078125 6.03125 -7.671875 C 6.695312 -7.316406 7.226562 -6.992188 7.625 -6.703125 C 8.019531 -6.410156 8.359375 -6.015625 8.640625 -5.515625 C 8.921875 -5.023438 9.0625 -4.410156 9.0625 -3.671875 C 9.0625 -2.859375 8.859375 -2.160156 8.453125 -1.578125 C 8.054688 -1.003906 7.515625 -0.5625 6.828125 -0.25 C 6.140625 0.0625 5.375 0.21875 4.53125 0.21875 Z M 4.53125 0.21875 "/></g></g></g><g fill="#17265c" fill-opacity="1"><g transform="translate(16.8244, 30.772906)"><g><path d="M 1.984375 5.171875 C 1.679688 5.171875 1.410156 5.148438 1.171875 5.109375 C 0.941406 5.066406 0.765625 5.019531 0.640625 4.96875 C 0.523438 4.925781 0.457031 4.894531 0.4375 4.875 L 0.65625 3.328125 C 0.707031 3.359375 0.835938 3.398438 1.046875 3.453125 C 1.265625 3.515625 1.476562 3.546875 1.6875 3.546875 C 2.28125 3.546875 2.757812 3.3125 3.125 2.84375 C 3.5 2.375 3.910156 1.554688 4.359375 0.390625 L 0.140625 -9.921875 L 3.328125 -9.921875 L 5.75 -2.859375 L 7.796875 -9.921875 L 9.453125 -9.921875 L 6.015625 0.21875 C 5.597656 1.34375 5.207031 2.253906 4.84375 2.953125 C 4.488281 3.660156 4.078125 4.207031 3.609375 4.59375 C 3.148438 4.976562 2.609375 5.171875 1.984375 5.171875 Z M 1.984375 5.171875 "/></g></g></g><g fill="#17265c" fill-opacity="1"><g transform="translate(30.337084, 30.772906)"><g><path d="M 3.96875 0.21875 C 3.195312 0.21875 2.550781 0.109375 2.03125 -0.109375 C 1.519531 -0.328125 1.128906 -0.5625 0.859375 -0.8125 C 0.597656 -1.0625 0.46875 -1.210938 0.46875 -1.265625 L 1.203125 -2.296875 C 1.203125 -2.273438 1.304688 -2.15625 1.515625 -1.9375 C 1.734375 -1.726562 2.003906 -1.535156 2.328125 -1.359375 C 2.648438 -1.179688 3.007812 -1.09375 3.40625 -1.09375 C 3.894531 -1.09375 4.269531 -1.21875 4.53125 -1.46875 C 4.800781 -1.71875 4.9375 -2.046875 4.9375 -2.453125 C 4.9375 -2.859375 4.796875 -3.175781 4.515625 -3.40625 C 4.242188 -3.632812 3.832031 -3.875 3.28125 -4.125 C 2.757812 -4.375 2.34375 -4.601562 2.03125 -4.8125 C 1.71875 -5.019531 1.445312 -5.304688 1.21875 -5.671875 C 1 -6.035156 0.890625 -6.5 0.890625 -7.0625 C 0.890625 -8.039062 1.226562 -8.796875 1.90625 -9.328125 C 2.582031 -9.867188 3.414062 -10.140625 4.40625 -10.140625 C 4.832031 -10.140625 5.253906 -10.085938 5.671875 -9.984375 C 6.097656 -9.878906 6.445312 -9.769531 6.71875 -9.65625 C 7 -9.550781 7.179688 -9.484375 7.265625 -9.453125 L 6.90625 -8.109375 C 6.84375 -8.148438 6.691406 -8.226562 6.453125 -8.34375 C 6.210938 -8.46875 5.921875 -8.582031 5.578125 -8.6875 C 5.242188 -8.789062 4.9375 -8.84375 4.65625 -8.84375 C 4.25 -8.84375 3.929688 -8.742188 3.703125 -8.546875 C 3.484375 -8.347656 3.375 -8.085938 3.375 -7.765625 C 3.375 -7.359375 3.519531 -7.03125 3.8125 -6.78125 C 4.113281 -6.539062 4.566406 -6.285156 5.171875 -6.015625 C 5.722656 -5.742188 6.160156 -5.5 6.484375 -5.28125 C 6.816406 -5.070312 7.101562 -4.78125 7.34375 -4.40625 C 7.582031 -4.03125 7.703125 -3.566406 7.703125 -3.015625 C 7.703125 -2.046875 7.378906 -1.265625 6.734375 -0.671875 C 6.097656 -0.078125 5.175781 0.21875 3.96875 0.21875 Z M 3.96875 0.21875 "/></g></g></g><g fill="#17265c" fill-opacity="1"><g transform="translate(42.579996, 30.772906)"><g><path d="M 1.53125 -12.90625 L 5.90625 -12.90625 C 7.90625 -12.90625 9.441406 -12.347656 10.515625 -11.234375 C 11.597656 -10.128906 12.140625 -8.519531 12.140625 -6.40625 C 12.140625 -4.320312 11.609375 -2.734375 10.546875 -1.640625 C 9.492188 -0.546875 7.957031 0 5.9375 0 L 1.53125 0 Z M 5.953125 -1.40625 C 6.722656 -1.40625 7.332031 -1.566406 7.78125 -1.890625 C 8.238281 -2.210938 8.570312 -2.734375 8.78125 -3.453125 C 9 -4.179688 9.109375 -5.164062 9.109375 -6.40625 C 9.109375 -7.65625 9 -8.648438 8.78125 -9.390625 C 8.5625 -10.128906 8.21875 -10.660156 7.75 -10.984375 C 7.289062 -11.316406 6.675781 -11.484375 5.90625 -11.484375 L 4.265625 -11.484375 L 4.265625 -1.40625 Z M 5.953125 -1.40625 "/></g></g></g><g fill="#17265c" fill-opacity="1"><g transform="translate(59.38615, 30.772906)"><g><path d="M 5.21875 0.21875 C 3.75 0.21875 2.609375 -0.1875 1.796875 -1 C 0.984375 -1.8125 0.578125 -3.070312 0.578125 -4.78125 C 0.578125 -6.5 0.972656 -7.816406 1.765625 -8.734375 C 2.554688 -9.660156 3.628906 -10.125 4.984375 -10.125 C 6.210938 -10.125 7.164062 -9.734375 7.84375 -8.953125 C 8.53125 -8.179688 8.875 -7.078125 8.875 -5.640625 C 8.875 -5.304688 8.847656 -5.023438 8.796875 -4.796875 C 8.753906 -4.578125 8.726562 -4.441406 8.71875 -4.390625 L 3.375 -4.390625 C 3.382812 -3.191406 3.554688 -2.34375 3.890625 -1.84375 C 4.234375 -1.351562 4.78125 -1.109375 5.53125 -1.109375 C 5.988281 -1.109375 6.390625 -1.203125 6.734375 -1.390625 C 7.078125 -1.585938 7.347656 -1.800781 7.546875 -2.03125 C 7.742188 -2.257812 7.84375 -2.390625 7.84375 -2.421875 L 8.734375 -1.71875 C 8.734375 -1.664062 8.597656 -1.472656 8.328125 -1.140625 C 8.054688 -0.816406 7.65625 -0.507812 7.125 -0.21875 C 6.601562 0.0703125 5.96875 0.21875 5.21875 0.21875 Z M 6.40625 -5.671875 L 6.40625 -6.125 C 6.40625 -7.132812 6.300781 -7.835938 6.09375 -8.234375 C 5.882812 -8.640625 5.515625 -8.84375 4.984375 -8.84375 C 4.609375 -8.84375 4.3125 -8.75 4.09375 -8.5625 C 3.875 -8.382812 3.703125 -8.066406 3.578125 -7.609375 C 3.460938 -7.148438 3.394531 -6.503906 3.375 -5.671875 Z M 6.40625 -5.671875 "/></g></g></g><g fill="#17265c" fill-opacity="1"><g transform="translate(72.759954, 30.772906)"><g><path d="M 3.96875 0.21875 C 3.195312 0.21875 2.550781 0.109375 2.03125 -0.109375 C 1.519531 -0.328125 1.128906 -0.5625 0.859375 -0.8125 C 0.597656 -1.0625 0.46875 -1.210938 0.46875 -1.265625 L 1.203125 -2.296875 C 1.203125 -2.273438 1.304688 -2.15625 1.515625 -1.9375 C 1.734375 -1.726562 2.003906 -1.535156 2.328125 -1.359375 C 2.648438 -1.179688 3.007812 -1.09375 3.40625 -1.09375 C 3.894531 -1.09375 4.269531 -1.21875 4.53125 -1.46875 C 4.800781 -1.71875 4.9375 -2.046875 4.9375 -2.453125 C 4.9375 -2.859375 4.796875 -3.175781 4.515625 -3.40625 C 4.242188 -3.632812 3.832031 -3.875 3.28125 -4.125 C 2.757812 -4.375 2.34375 -4.601562 2.03125 -4.8125 C 1.71875 -5.019531 1.445312 -5.304688 1.21875 -5.671875 C 1 -6.035156 0.890625 -6.5 0.890625 -7.0625 C 0.890625 -8.039062 1.226562 -8.796875 1.90625 -9.328125 C 2.582031 -9.867188 3.414062 -10.140625 4.40625 -10.140625 C 4.832031 -10.140625 5.253906 -10.085938 5.671875 -9.984375 C 6.097656 -9.878906 6.445312 -9.769531 6.71875 -9.65625 C 7 -9.550781 7.179688 -9.484375 7.265625 -9.453125 L 6.90625 -8.109375 C 6.84375 -8.148438 6.691406 -8.226562 6.453125 -8.34375 C 6.210938 -8.46875 5.921875 -8.582031 5.578125 -8.6875 C 5.242188 -8.789062 4.9375 -8.84375 4.65625 -8.84375 C 4.25 -8.84375 3.929688 -8.742188 3.703125 -8.546875 C 3.484375 -8.347656 3.375 -8.085938 3.375 -7.765625 C 3.375 -7.359375 3.519531 -7.03125 3.8125 -6.78125 C 4.113281 -6.539062 4.566406 -6.285156 5.171875 -6.015625 C 5.722656 -5.742188 6.160156 -5.5 6.484375 -5.28125 C 6.816406 -5.070312 7.101562 -4.78125 7.34375 -4.40625 C 7.582031 -4.03125 7.703125 -3.566406 7.703125 -3.015625 C 7.703125 -2.046875 7.378906 -1.265625 6.734375 -0.671875 C 6.097656 -0.078125 5.175781 0.21875 3.96875 0.21875 Z M 3.96875 0.21875 "/></g></g></g><g fill="#17265c" fill-opacity="1"><g transform="translate(85.002864, 30.772906)"><g><path d="M 2.515625 -11.40625 C 2.117188 -11.40625 1.769531 -11.539062 1.46875 -11.8125 C 1.164062 -12.113281 1.015625 -12.488281 1.015625 -12.9375 C 1.015625 -13.375 1.164062 -13.742188 1.46875 -14.046875 C 1.75 -14.316406 2.097656 -14.453125 2.515625 -14.453125 C 2.929688 -14.453125 3.269531 -14.320312 3.53125 -14.0625 C 3.820312 -13.757812 3.96875 -13.382812 3.96875 -12.9375 C 3.96875 -12.476562 3.820312 -12.09375 3.53125 -11.78125 C 3.238281 -11.53125 2.898438 -11.40625 2.515625 -11.40625 Z M 1.1875 0 L 1.1875 -9.921875 L 3.828125 -9.921875 L 3.828125 0 Z M 1.1875 0 "/></g></g></g><g fill="#17265c" fill-opacity="1"><g transform="translate(93.991986, 30.772906)"><g><path d="M 4.640625 5.203125 C 3.148438 5.203125 2.035156 4.898438 1.296875 4.296875 C 0.566406 3.703125 0.203125 2.898438 0.203125 1.890625 C 0.203125 0.773438 0.617188 -0.0390625 1.453125 -0.5625 C 1.304688 -0.875 1.234375 -1.226562 1.234375 -1.625 C 1.234375 -2.414062 1.523438 -3.066406 2.109375 -3.578125 C 1.628906 -3.878906 1.253906 -4.28125 0.984375 -4.78125 C 0.710938 -5.28125 0.578125 -5.867188 0.578125 -6.546875 C 0.578125 -7.734375 0.957031 -8.625 1.71875 -9.21875 C 2.488281 -9.820312 3.46875 -10.125 4.65625 -10.125 C 5.1875 -10.125 5.691406 -10.050781 6.171875 -9.90625 L 8.84375 -9.875 L 8.84375 -8.71875 L 7.890625 -8.65625 C 8.265625 -8.09375 8.453125 -7.390625 8.453125 -6.546875 C 8.453125 -5.367188 8.101562 -4.46875 7.40625 -3.84375 C 6.71875 -3.226562 5.785156 -2.921875 4.609375 -2.921875 C 4.148438 -2.921875 3.691406 -2.972656 3.234375 -3.078125 C 2.984375 -2.878906 2.859375 -2.632812 2.859375 -2.34375 C 2.859375 -2.070312 3.007812 -1.867188 3.3125 -1.734375 C 3.613281 -1.597656 4.132812 -1.53125 4.875 -1.53125 C 6.332031 -1.53125 7.410156 -1.265625 8.109375 -0.734375 C 8.816406 -0.203125 9.171875 0.578125 9.171875 1.609375 C 9.171875 2.773438 8.789062 3.664062 8.03125 4.28125 C 7.269531 4.894531 6.140625 5.203125 4.640625 5.203125 Z M 4.546875 -4.125 C 4.992188 -4.125 5.328125 -4.316406 5.546875 -4.703125 C 5.773438 -5.085938 5.890625 -5.71875 5.890625 -6.59375 C 5.890625 -7.457031 5.773438 -8.046875 5.546875 -8.359375 C 5.328125 -8.679688 4.988281 -8.84375 4.53125 -8.84375 C 4.0625 -8.84375 3.707031 -8.679688 3.46875 -8.359375 C 3.226562 -8.035156 3.109375 -7.429688 3.109375 -6.546875 C 3.109375 -5.691406 3.226562 -5.070312 3.46875 -4.6875 C 3.71875 -4.3125 4.078125 -4.125 4.546875 -4.125 Z M 4.640625 3.84375 C 5.421875 3.84375 6.003906 3.703125 6.390625 3.421875 C 6.773438 3.148438 6.96875 2.75 6.96875 2.21875 C 6.96875 1.6875 6.757812 1.300781 6.34375 1.0625 C 5.925781 0.832031 5.300781 0.71875 4.46875 0.71875 C 3.6875 0.71875 3.046875 0.609375 2.546875 0.390625 C 2.210938 0.753906 2.046875 1.234375 2.046875 1.828125 C 2.046875 2.472656 2.257812 2.96875 2.6875 3.3125 C 3.113281 3.664062 3.765625 3.84375 4.640625 3.84375 Z M 4.640625 3.84375 "/></g></g></g><g fill="#17265c" fill-opacity="1"><g transform="translate(107.107859, 30.772906)"><g><path d="M 1.1875 -9.921875 L 3.3125 -9.921875 L 3.65625 -9.109375 L 3.734375 -9.109375 C 3.734375 -9.128906 3.84375 -9.222656 4.0625 -9.390625 C 4.28125 -9.566406 4.59375 -9.734375 5 -9.890625 C 5.40625 -10.046875 5.914062 -10.125 6.53125 -10.125 C 7.550781 -10.125 8.3125 -9.847656 8.8125 -9.296875 C 9.320312 -8.742188 9.578125 -7.890625 9.578125 -6.734375 L 9.578125 0 L 6.953125 0 L 6.953125 -6.1875 C 6.953125 -7.070312 6.851562 -7.671875 6.65625 -7.984375 C 6.46875 -8.304688 6.117188 -8.46875 5.609375 -8.46875 C 5.265625 -8.46875 4.960938 -8.414062 4.703125 -8.3125 C 4.441406 -8.207031 4.226562 -8.09375 4.0625 -7.96875 C 3.90625 -7.84375 3.828125 -7.773438 3.828125 -7.765625 L 3.828125 0 L 1.1875 0 Z M 1.1875 -9.921875 "/></g></g></g><path stroke-linecap="butt" transform="matrix(0.496197, 0, 0, 0.496197, 119.277952, 7.776529)" fill="none" stroke-linejoin="miter" d="M 14.129687 40.402667 C 11.224781 40.402667 9.004771 39.599685 7.461786 38.001593 C 5.934545 36.395629 5.170925 34.238598 5.170925 31.522629 L 5.170925 14.006596 L 8.170299 14.006596 L 8.170299 30.845605 C 8.170299 33.270296 8.705621 35.128177 9.768391 36.427118 C 10.839034 37.718188 12.397765 38.363722 14.452454 38.363722 C 16.585868 38.363722 18.191832 37.702443 19.270347 36.387756 C 20.348863 35.065198 20.892056 33.21519 20.892056 30.845605 L 20.892056 14.006596 L 23.088449 14.006596 L 23.088449 31.522629 C 23.088449 34.238598 22.340573 36.395629 20.852695 38.001593 C 19.356943 39.599685 17.121189 40.402667 14.129687 40.402667 Z M 35.243395 40.001176 L 43.564495 27.08261 L 35.55829 14.006596 L 39.242561 14.006596 L 45.682163 24.886218 L 52.397299 14.006596 L 54.916459 14.006596 L 46.96536 26.602395 L 55.436035 40.001176 L 51.720275 40.001176 L 44.887054 28.838149 L 44.847692 28.838149 L 37.920002 40.001176 Z M 35.243395 40.001176 " stroke="#17265c" stroke-width="1.99999" stroke-opacity="1" stroke-miterlimit="4"/><g fill="#3de2e5" fill-opacity="1"><g transform="translate(120.138544, 27.624416)"><g><path d="M 6.15625 0.203125 C 4.707031 0.203125 3.601562 -0.191406 2.84375 -0.984375 C 2.082031 -1.785156 1.703125 -2.859375 1.703125 -4.203125 L 1.703125 -12.90625 L 3.1875 -12.90625 L 3.1875 -4.546875 C 3.1875 -3.335938 3.453125 -2.410156 3.984375 -1.765625 C 4.515625 -1.128906 5.289062 -0.8125 6.3125 -0.8125 C 7.363281 -0.8125 8.15625 -1.140625 8.6875 -1.796875 C 9.226562 -2.453125 9.5 -3.367188 9.5 -4.546875 L 9.5 -12.90625 L 10.59375 -12.90625 L 10.59375 -4.203125 C 10.59375 -2.859375 10.222656 -1.785156 9.484375 -0.984375 C 8.742188 -0.191406 7.632812 0.203125 6.15625 0.203125 Z M 6.15625 0.203125 "/></g></g></g><g fill="#3de2e5" fill-opacity="1"><g transform="translate(136.409017, 27.624416)"><g><path d="M 0.359375 0 L 4.484375 -6.40625 L 0.515625 -12.90625 L 2.34375 -12.90625 L 5.53125 -7.5 L 8.875 -12.90625 L 10.125 -12.90625 L 6.171875 -6.640625 L 10.375 0 L 8.53125 0 L 5.140625 -5.53125 L 5.125 -5.53125 L 1.6875 0 Z M 0.359375 0 "/></g></g></g></svg>