<svg xmlns="http://www.w3.org/2000/svg" xmlns:xlink="http://www.w3.org/1999/xlink" width="50" zoomAndPan="magnify" viewBox="0 0 37.5 37.499999" height="50" preserveAspectRatio="xMidYMid meet" version="1.0"><defs><clipPath id="302a936539"><path d="M 0 0 L 37.007812 0 L 37.007812 37 L 0 37 Z M 0 0 " clip-rule="nonzero"/></clipPath></defs><g clip-path="url(#302a936539)"><path fill="#0cc0df" d="M 37.011719 18.511719 L 36.84375 21.023438 C 36.042969 26.082031 33.699219 30.128906 29.8125 33.160156 C 25.902344 36.191406 21.296875 37.421875 15.996094 36.847656 C 10.9375 36.046875 6.890625 33.707031 3.859375 29.820312 C 2.886719 28.566406 2.085938 27.195312 1.457031 25.714844 L 0.664062 23.433594 C 0.226562 21.859375 0.0078125 20.222656 0.00390625 18.511719 C 0.132812 13.269531 1.941406 8.910156 5.421875 5.429688 C 8.902344 1.949219 13.265625 0.140625 18.507812 0.0078125 C 23.75 0.140625 28.109375 1.949219 31.589844 5.429688 C 35.074219 8.910156 36.878906 13.269531 37.011719 18.511719 " fill-opacity="1" fill-rule="nonzero"/></g><path fill="#fefefe" d="M 14.851562 24.097656 C 13.226562 22.660156 11.371094 20.128906 10.410156 18.359375 C 9.601562 16.867188 9.128906 15.300781 8.96875 13.664062 C 8.824219 12.203125 8.96875 10.902344 9.664062 9.933594 C 11.027344 8.03125 12.183594 7.296875 12.894531 7.542969 C 13.398438 7.566406 13.90625 7.945312 14.363281 8.707031 C 15.140625 10 15.757812 11.359375 16.164062 12.785156 C 16.289062 13.226562 16.230469 13.605469 16.101562 13.898438 C 16.082031 14.03125 15.710938 14.621094 14.996094 15.675781 C 14.914062 15.792969 14.855469 15.945312 14.824219 16.117188 C 14.726562 16.601562 14.832031 17.125 15.066406 17.707031 C 15.65625 19.199219 16.382812 20.339844 20.109375 23.523438 Z M 14.851562 24.097656 " fill-opacity="1" fill-rule="nonzero"/><path fill="#fefefe" d="M 13.015625 22.136719 C 14.34375 23.851562 16.75 25.863281 18.457031 26.9375 C 19.894531 27.839844 21.425781 28.410156 23.050781 28.675781 C 24.5 28.914062 25.804688 28.851562 26.820312 28.21875 C 28.800781 26.980469 29.613281 25.871094 29.410156 25.148438 C 29.417969 24.644531 29.074219 24.113281 28.34375 23.609375 C 27.101562 22.75 25.785156 22.046875 24.386719 21.550781 C 23.953125 21.398438 23.574219 21.433594 23.273438 21.542969 C 23.140625 21.550781 22.527344 21.886719 21.429688 22.535156 C 21.304688 22.609375 21.152344 22.65625 20.976562 22.675781 C 20.488281 22.742188 19.972656 22.601562 19.40625 22.335938 C 17.953125 21.648438 16.863281 20.851562 13.921875 16.929688 Z M 13.015625 22.136719 " fill-opacity="1" fill-rule="nonzero"/></svg>