<svg xmlns="http://www.w3.org/2000/svg" xmlns:xlink="http://www.w3.org/1999/xlink" width="50" zoomAndPan="magnify" viewBox="0 0 37.5 37.499999" height="50" preserveAspectRatio="xMidYMid meet" version="1.0"><defs><clipPath id="03a5be6f26"><path d="M 10.417969 13.027344 L 26.703125 13.027344 L 26.703125 24 L 10.417969 24 Z M 10.417969 13.027344 " clip-rule="nonzero"/></clipPath></defs><g clip-path="url(#03a5be6f26)"><path fill="#0cc0df" d="M 18.554688 19.800781 L 23.335938 17.964844 L 23.335938 22.109375 C 23.335938 23.003906 21.957031 23.589844 20.28125 23.835938 L 20.28125 23.230469 L 21.503906 23.230469 C 21.671875 23.230469 21.808594 23.09375 21.808594 22.925781 L 21.808594 21.394531 L 22.421875 21.394531 C 22.589844 21.394531 22.726562 21.257812 22.726562 21.089844 L 22.726562 20.089844 C 23.257812 19.792969 23.042969 18.945312 22.417969 18.949219 C 21.792969 18.945312 21.578125 19.792969 22.113281 20.089844 C 22.113281 20.089844 22.113281 20.785156 22.113281 20.785156 L 21.503906 20.785156 C 21.335938 20.785156 21.199219 20.921875 21.199219 21.089844 L 21.199219 22.617188 L 19.972656 22.617188 C 19.804688 22.617188 19.667969 22.753906 19.667969 22.925781 L 19.667969 23.910156 C 19.464844 23.929688 19.261719 23.941406 19.058594 23.953125 L 19.058594 22.3125 L 19.972656 22.3125 C 20.144531 22.3125 20.28125 22.175781 20.28125 22.007812 L 20.28125 20.171875 L 20.367188 20.171875 C 20.664062 20.707031 21.511719 20.484375 21.507812 19.867188 C 21.507812 19.527344 21.230469 19.253906 20.894531 19.253906 C 20.664062 19.253906 20.46875 19.378906 20.363281 19.5625 L 19.972656 19.5625 C 19.804688 19.5625 19.667969 19.699219 19.667969 19.867188 L 19.667969 20.480469 L 19.277344 20.480469 C 18.980469 19.941406 18.132812 20.160156 18.136719 20.78125 C 18.132812 21.402344 18.976562 21.625 19.277344 21.089844 C 19.277344 21.089844 19.667969 21.089844 19.667969 21.089844 L 19.667969 21.703125 L 18.75 21.703125 C 18.582031 21.703125 18.445312 21.839844 18.445312 22.007812 L 18.445312 23.96875 C 18.242188 23.96875 18.039062 23.960938 17.832031 23.953125 L 17.832031 21.394531 C 17.832031 21.226562 17.695312 21.089844 17.527344 21.089844 L 16.304688 21.089844 L 16.304688 20.394531 C 16.488281 20.289062 16.609375 20.09375 16.609375 19.867188 C 16.609375 19.53125 16.335938 19.253906 15.996094 19.253906 C 15.375 19.25 15.15625 20.097656 15.695312 20.398438 C 15.695312 20.398438 15.695312 21.394531 15.695312 21.394531 C 15.695312 21.566406 15.832031 21.703125 16 21.703125 L 17.222656 21.703125 L 17.222656 23.910156 C 16.800781 23.871094 16.386719 23.808594 16 23.726562 L 16 22.617188 C 16 22.449219 15.863281 22.3125 15.695312 22.3125 L 15.082031 22.3125 L 15.082031 21.617188 C 15.265625 21.511719 15.386719 21.316406 15.386719 21.089844 C 15.367188 20.28125 14.179688 20.28125 14.164062 21.089844 C 14.164062 21.316406 14.289062 21.511719 14.472656 21.617188 L 14.472656 22.617188 C 14.472656 22.789062 14.609375 22.925781 14.777344 22.925781 L 15.386719 22.925781 L 15.386719 23.578125 C 14.3125 23.265625 13.554688 22.773438 13.554688 22.113281 L 13.554688 19.867188 L 13.941406 19.867188 C 14.242188 20.40625 15.089844 20.183594 15.085938 19.5625 C 15.09375 18.941406 14.246094 18.71875 13.945312 19.253906 C 13.945312 19.253906 13.554688 19.253906 13.554688 19.253906 L 13.554688 17.964844 L 18.335938 19.800781 C 18.40625 19.828125 18.484375 19.828125 18.554688 19.800781 Z M 26.070312 20.683594 L 26.070312 16.917969 L 25.460938 17.152344 L 25.460938 20.683594 C 25.171875 20.789062 24.941406 21.046875 24.929688 21.457031 C 24.957031 22.558594 26.574219 22.558594 26.601562 21.457031 C 26.589844 21.046875 26.359375 20.789062 26.070312 20.683594 Z M 26.457031 16.113281 L 18.445312 13.035156 L 10.433594 16.113281 L 18.445312 19.1875 Z M 26.457031 16.113281 " fill-opacity="1" fill-rule="nonzero"/></g></svg>